<svg xmlns="http://www.w3.org/2000/svg" width="256" height="256"><path fill-opacity=".016" d="M0 128.004v128.004l128.25-.254 128.25-.254.254-127.75L257.008 0H0v128.004m.485.496c0 70.4.119 99.053.265 63.672.146-35.38.146-92.98 0-128C.604 29.153.485 58.1.485 128.5" fill="#1976D2" fill-rule="evenodd"/><path fill-opacity=".227" d="M52.546 3.191c-1.79 3.03-2.469 5.393-4.544 15.809-.493 2.475-2.495 10.688-4.449 18.25-1.954 7.563-5.128 19.93-7.053 27.484L33 78.468v30.575c0 25.335.252 30.907 1.468 32.516 1.201 1.587 1.474 6.634 1.5 27.691.021 16.521-.326 25.75-.968 25.75-.55 0-1.9.9-3 2-1.577 1.577-2 3.333-2 8.309 0 8.928.848 9.73 11.593 10.963l8.94 1.026-.155 6.601c-.134 5.761.412 7.937 4.292 17.101 2.445 5.775 5.105 11.513 5.911 12.75l1.465 2.25H195.77l1.4-2.25c.77-1.238 3.176-6.3 5.346-11.25 3.259-7.434 4.036-10.479 4.465-17.5.394-6.449.847-8.431 1.879-8.213.748.157 4.563-.157 8.477-.7 8.664-1.2 9.663-2.314 9.663-10.778 0-4.976-.423-6.732-2-8.309-1.1-1.1-2.45-2-3-2-.642 0-.989-9.229-.968-25.75.026-21.057.299-26.104 1.5-27.691 1.216-1.609 1.468-7.181 1.468-32.516V78.468l-3.563-13.984A9803.24 9803.24 0 0 0 213.384 37c-1.919-7.425-3.893-15.525-4.386-18-2.075-10.416-2.754-12.779-4.544-15.809L202.569 0h-13.544c-15.947 0-14.598-.996-19.635 14.5-5.773 17.757-6.884 20.135-8.729 18.683-.639-.502-4.761-1.163-9.161-1.468-9.35-.649-52.024.693-55.106 1.732-2.334.788-2.331.794-8.772-18.947C82.565-1 83.92 0 67.975 0H54.431l-1.885 3.191" fill="#1976D2" fill-rule="evenodd"/><path fill-opacity=".216" d="M53.441 3.75c-2.042 4.283-3.413 9.743-4.083 16.25-.254 2.475-.855 5.4-1.335 6.5-.48 1.1-1.151 3.35-1.492 5-.341 1.65-1.083 4.8-1.648 7s-1.27 5.467-1.566 7.259c-.296 1.793-.938 3.507-1.427 3.809-.49.303-.89 2.072-.89 3.932 0 1.86-.4 3.629-.89 3.932-.489.302-1.131 2.016-1.427 3.809-.296 1.792-1.104 5.284-1.795 7.759-1.622 5.809-2.463 73-.913 73 .675 0 1.025 9.203 1.025 26.945v26.946l-2.75 1.314c-2.509 1.198-2.776 1.861-3.048 7.577-.202 4.238.134 6.696 1.037 7.6.747.747 5.289 1.729 10.299 2.227l8.962.891.313 3.25.314 3.25h64.779c35.629 0 70.219.292 76.868.65l12.087.65.32-3.9.319-3.9 8.5-.91c10.252-1.097 11.076-1.871 10.743-10.081-.221-5.442-.495-6.111-2.993-7.304l-2.75-1.314v-26.946c0-17.297.358-26.945 1-26.945 1.271 0 1.38-68.647.11-69.432-.489-.302-1.131-2.016-1.427-3.809-.296-1.792-1.001-5.059-1.566-7.259-.565-2.2-1.307-5.35-1.648-7-.341-1.65-1.002-3.9-1.469-5-.467-1.1-1.128-3.35-1.469-5-.341-1.65-1.03-4.575-1.531-6.5-.501-1.925-1.19-4.85-1.531-6.5-.341-1.65-1.012-3.9-1.492-5s-1.081-4.025-1.335-6.5c-1.036-10.071-4.638-20-7.256-20-1.605 0-1.852 1.594-.386 2.5 2.191 1.354 1.01 6.282-8.099 33.772-2.146 6.474-3.901 12.436-3.901 13.25 0 .813-.25 1.478-.556 1.478-.305 0-3.48-2.925-7.055-6.5-3.575-3.575-7.15-6.5-7.945-6.5-.794 0-1.444-.45-1.444-1s-.9-1-2-1-2-.464-2-1.031c0-.568-1.463-1.005-3.25-.972-1.787.033-5.725-.335-8.75-.816-3.14-.5-16.228-.502-30.5-.005-29.662 1.032-32.23 1.218-35.533 2.571-3.566 1.462-11.931 7.957-15.344 11.916C70.522 51.26 69 51.871 69 49.522c0-.814-1.755-6.776-3.901-13.25C55.99 8.782 54.809 3.854 57 2.5c1.466-.906 1.219-2.5-.386-2.5-.762 0-2.19 1.688-3.173 3.75M60.058 80c-2.917 1.923-5.311 18.785-3.054 21.505 1.864 2.245 140.087 2.261 142.331.017 1.166-1.166 1.36-3.219.915-9.711-.925-13.482 6.957-12.14-71.826-12.232-37.184-.043-67.949.146-68.366.421m-5.808 98.244c-1.474 1.842-2.424 5.408-3.254 12.215-1.289 10.569-9.641 9.541 77.52 9.541h76.446l.637-2.536c.948-3.78-.014-13.544-1.672-16.964l-1.454-3-73.609-.256c-58.135-.203-73.82.007-74.614 1" fill="#1976D2" fill-rule="evenodd"/><path fill-opacity=".263" d="M149.108 35.354c8.143 3.35 11.919 5.924 17.777 12.118 5.559 5.878 11.477 17.03 10.94 20.616-.275 1.838-1.028 1.263-4.922-3.763-5.271-6.803-12.115-11.717-19.289-13.847-7.012-2.082-43.185-2.092-50.182-.013-7.39 2.195-13.825 6.751-19.061 13.493L79.679 70h-7.864c-7.522 0-7.907.112-8.84 2.565C60.765 78.378 56.208 78 128.5 78H195v-2.754c0-3.891-4.567-16.011-7.787-20.669-9.352-13.524-23.818-21.62-38.512-21.553l-5.201.023 5.608 2.307M107.895 57.32c-5.92 1.331-9.63 3.298-14.145 7.497C88.142 70.033 87.923 70 128.5 70c41.726 0 40.987.141 33.383-6.368-6.855-5.867-11.124-6.869-30.883-7.242-11.608-.219-19.387.094-23.105.93m-47.467 48.006c-.317.828-.431 2.781-.253 4.34l.325 2.834 61 .5c60.062.492 61.004.531 61.25 2.5 1.052 8.417 4.04 50.031 3.638 50.681-.634 1.026-129.11 1.095-129.706.069-.24-.412-.151-5.404.197-11.092.348-5.688.262-10.571-.191-10.851-.453-.28-4.843-.19-9.756.198l-8.932.707V195.1l5.722-.3 5.722-.3 1.079-7.201C52.402 174.763 43.798 176 129.098 176h73.789l1.556 2.223c.856 1.222 1.56 3.809 1.563 5.75.003 1.94.474 5.215 1.047 7.277 1.04 3.748 1.045 3.75 6.494 3.75H219v-49.813l-9.442-.708-9.443-.708-.518-5.136c-.284-2.824-.774-9.185-1.088-14.135-.799-12.599-1.476-18.8-2.121-19.446-.305-.305-30.89-.707-67.968-.893-59.307-.299-67.484-.159-67.992 1.165m16.239 15.341c-1.206 1.205-.742 17.858.533 19.133.816.816 5.566 1.2 14.845 1.2 16.791 0 16.955-.108 16.955-11.129 0-4.477-.481-7.952-1.2-8.671-1.291-1.291-29.885-1.781-31.133-.533M52 205.42v4.566l69.25.257 69.25.257.3 5.75.3 5.75h14.48l-.239-4.75c-.132-2.613-.263-7.262-.29-10.333l-.051-5.583-76.5-.241-76.5-.24v4.567" fill="#1976D2" fill-rule="evenodd"/></svg>