<svg xmlns="http://www.w3.org/2000/svg" width="256" height="256"><path fill-opacity=".016" d="M0 128.004v128.004l128.25-.254 128.25-.254.254-127.75L257.008 0H0v128.004m.485.496c0 70.4.119 99.053.265 63.672.146-35.38.146-92.98 0-128C.604 29.153.485 58.1.485 128.5" fill="#1976D2" fill-rule="evenodd"/><path fill-opacity=".139" d="M106.5 1.525C53.896 11.243 13.724 50.085 2.416 102.162.245 112.161-.527 133.491.895 144.156c3.318 24.881 12.869 46.55 29.181 66.212 17.419 20.995 40.679 35.347 68.65 42.36 9.684 2.428 12.595 2.704 28.774 2.728 13.903.021 19.935-.396 26.5-1.831 25.593-5.595 46.301-16.854 64.536-35.089 18.887-18.886 30.67-41.285 36.055-68.536 1.887-9.548 3.119-36.557 1.626-35.634-.519.321-1.21-1.975-1.548-5.143-.861-8.067-4.225-20.259-8.337-30.218-15.764-38.17-49.698-66.8-90.255-76.144-11.678-2.69-38.355-3.41-49.577-1.336M57.268 64.25c14.477 37.546 51.223 131.745 51.883 133 .771 1.468 2.363 1.75 9.884 1.75H128v-31.335l-20.25-52.311L87.5 63.043l-15.357-.022c-11.883-.016-15.248.262-14.875 1.229M.392 128c0 7.425.157 10.463.35 6.75.192-3.713.192-9.787 0-13.5-.193-3.713-.35-.675-.35 6.75" fill="#1976D2" fill-rule="evenodd"/><path fill-opacity=".116" d="M114 1.041C93.038 3.606 73.773 10.73 56 22.488 46.43 28.819 28.964 46.298 22.513 56 5.804 81.131-2.001 111.186.926 139.136c3.144 30.032 13.613 53.792 33.076 75.068 10.849 11.861 27.639 24.224 40.542 29.852 27.55 12.018 54.361 14.538 84.628 7.953 20.483-4.456 43.036-17.219 59.541-33.696 14.384-14.359 27.826-37.497 32.716-56.313 3.244-12.485 5.909-31.604 5.25-37.668-2.97-27.335-10.269-48.854-23.175-68.332-6.384-9.635-23.869-27.12-33.504-33.504-15.284-10.127-34.81-17.979-50.755-20.41C138.62.467 122.579-.009 114 1.041M56.833 62.5c-.464.464 17.539 47.557 45.779 119.75l6.552 16.75h37.535l26.151-67.303C187.232 94.68 199 63.855 199 63.197c0-.877-4.094-1.197-15.326-1.197h-15.325l-10.312 26.75a418935.88 418935.88 0 01-19.743 51.207c-5.188 13.452-9.684 24.864-9.991 25.362-.307.497-9.617-22.434-20.688-50.958L87.486 62.5l-15.051-.275c-8.279-.151-15.299-.027-15.602.275M.336 128c0 4.125.177 5.813.392 3.75.216-2.062.216-5.437 0-7.5-.215-2.062-.392-.375-.392 3.75" fill="#1976D2" fill-rule="evenodd"/><path fill-opacity=".199" d="M173.022 132l-26.384 68H110.505l25.747 25.747 25.747 25.747 6.75-2.345c17.72-6.154 32.928-15.298 46.184-27.768 25.493-23.982 38.971-53.613 40.783-89.665l.598-11.889-27.9-27.913C213.069 76.561 200.264 64 199.96 64c-.305 0-12.427 30.6-26.938 68M89.167 65.962c2.754 7.947 38.473 99.014 38.833 99.007.497-.009 18.005-44.871 18.002-46.128C146 117.998 90.376 65 89.494 65c-.364 0-.511.433-.327.962" fill="#1976D2" fill-rule="evenodd"/></svg>