<svg xmlns="http://www.w3.org/2000/svg" width="256" height="256"><path fill-opacity=".016" d="M0 128.004v128.004l128.25-.254 128.25-.254.254-127.75L257.008 0H0v128.004m.485.496c0 70.4.119 99.053.265 63.672.146-35.38.146-92.98 0-128C.604 29.153.485 58.1.485 128.5" fill="#1976D2" fill-rule="evenodd"/><path fill-opacity=".159" d="M119.499 1.327c-11.191 3.677-18.977 12.888-21.07 24.923-.358 2.063-1.188 3.75-1.843 3.75-2.319 0-18.123 8.207-24.321 12.63-6.968 4.973-6.57 5.198-8.184-4.63-1.278-7.785-3.481-11.068-8.568-12.771-3.377-1.13-4.273-1.039-8.109.818-4.488 2.172-12.514 10.212-19.712 19.744L23.5 51.343l-.27 70.42c-.232 60.594-.476 70.626-1.75 71.9-1.784 1.784-1.977 9.44-.28 11.137.66.66 3.36 1.2 6 1.2H32v10.322c0 6.77.542 11.912 1.575 14.944 2.154 6.321 8.274 12.992 14.294 15.582 6.059 2.607 29.696 6.573 48.899 8.206 18.234 1.55 62.33.696 78.232-1.516 33.001-4.59 39.034-7.029 45.839-18.538 2.417-4.088 2.693-5.622 3.014-16.75l.353-12.25h4.697c2.583 0 5.237-.54 5.897-1.2 1.697-1.697 1.504-9.353-.28-11.137-1.274-1.274-1.518-11.306-1.75-71.9l-.27-70.42-4.192-5.552c-7.198-9.532-15.224-17.572-19.712-19.744-3.836-1.857-4.732-1.948-8.109-.818-5.087 1.703-7.29 4.986-8.568 12.771-1.6 9.745-1.3 9.529-7.154 5.142-5.397-4.043-13.645-8.572-21.958-12.056-4.144-1.736-4.775-2.413-5.388-5.776-1.744-9.582-8.153-18.066-16.81-22.257-5.745-2.782-15.476-3.577-21.11-1.726m2.951 15.08c-2.806 1.222-8.45 6.846-8.45 8.42 0 .37 6.3.673 14 .673s14-.303 14-.673c0-1.653-5.711-7.226-8.671-8.463-4.038-1.687-6.934-1.676-10.879.043" fill="#1976D2" fill-rule="evenodd"/><path fill-opacity=".204" d="M116.437 19.25 113.5 22.5l3.25-2.937c1.787-1.615 3.25-3.078 3.25-3.25 0-.773-.825-.092-3.563 2.937M136 16.313c0 .172 1.463 1.635 3.25 3.25l3.25 2.937-2.937-3.25c-2.738-3.029-3.563-3.71-3.563-2.937m-23.505 8.056c-.547.753-4.888 2.554-9.647 4.002-10.61 3.228-25.039 10.341-31.768 15.66C68.318 46.214 65.879 48 65.658 48c-.22 0-.705-2.362-1.078-5.25-1.162-9.002-2.487-12.494-5.803-15.284-2.721-2.289-3.844-2.606-7.708-2.17-4.137.466-5.25 1.265-13.046 9.357-12.816 13.303-14.562 16.256-14.347 24.272.097 3.616 1.885 16.475 3.975 28.575l3.799 22 .025 41.5.025 41.5-4.48.319c-5.825.414-7.02 1.539-7.02 6.603 0 5.351 1.317 6.578 7.061 6.578h4.66l.503 11.403c.563 12.744 2.437 18.191 8.264 24.019 5.016 5.015 9.807 6.711 27.257 9.647 33.289 5.6 74.944 6.373 107.774 2.001 33.295-4.434 39.242-6.965 45.708-19.454 1.713-3.308 2.219-6.421 2.576-15.866l.444-11.75h4.676c5.76 0 7.077-1.224 7.077-6.578 0-5.064-1.195-6.189-7.02-6.603l-4.48-.319v-71l3.665-8.5c4.726-10.959 5.834-21.461 2.686-25.463-1.997-2.538-2.001-2.71-.289-12.805.954-5.628 1.78-12.967 1.836-16.31.125-7.45-1.874-10.745-14.421-23.769-7.9-8.2-8.867-8.886-13.223-9.377-4.338-.489-4.963-.267-8.121 2.891-2.933 2.933-3.599 4.522-4.664 11.127-.684 4.238-1.567 7.706-1.962 7.706-.396 0-2.789-1.58-5.319-3.512-6.649-5.077-20.8-11.901-31.188-15.041-4.95-1.496-9.623-3.446-10.385-4.334-1.119-1.304-1.287-1.326-.877-.113.435 1.288-1.573 1.5-14.239 1.501-11.393.001-14.636-.283-14.265-1.25.634-1.652.004-1.592-1.239.118M72.924 64.75 70.5 67.5l2.75-2.424C75.82 62.81 76.459 62 75.674 62c-.179 0-1.416 1.237-2.75 2.75m29.743 28.917C100.954 95.379 102.505 96 108.5 96c6.172 0 8.369-1.069 4.918-2.393-2.129-.817-9.918-.774-10.751.06m21 0C121.954 95.379 123.505 96 129.5 96c6.172 0 8.369-1.069 4.918-2.393-2.129-.817-9.918-.774-10.751.06M82.5 95c.34.55 3.093 1 6.118 1 3.412 0 5.265-.38 4.882-1-.34-.55-3.093-1-6.118-1-3.412 0-5.265.38-4.882 1m61.5 0c0 .565 2.853 1 6.559 1 4.118 0 6.329-.372 5.941-1-.34-.55-3.291-1-6.559-1-3.294 0-5.941.446-5.941 1m21.229.2c.277.837 2.664 1.407 6.7 1.6 4.798.23 6.17-.005 5.842-1-.277-.837-2.664-1.407-6.7-1.6-4.798-.23-6.17.005-5.842 1m-81.942 47.903c-10.017.44-20.011 1.284-22.208 1.876-5.257 1.415-11.941 6.627-14.26 11.119C43.725 162.091 40.404 184 42.59 184c.324 0 1.405-1.007 2.401-2.237l1.811-2.237 5.653 5.883c3.962 4.123 5.338 6.198 4.599 6.937-.58.58-1.054 4.805-1.054 9.389 0 5.842-.463 9.043-1.549 10.699-1.734 2.647-6.766 5.108-8.391 4.103-1.64-1.013-1.261 1.149.967 5.516 2.545 4.989 8.594 9.434 14.741 10.833 5.162 1.175 42.365 3.216 53.686 2.946l7.046-.168-6-.664c-3.3-.365-4.627-.739-2.95-.832 1.678-.092 3.656-.73 4.397-1.418 1.077-1 1.205-1 .641 0-1.135 2.011 1.272 1.436 3.144-.75.942-1.1 2.287-2 2.99-2 .703 0 1.278-.436 1.278-.969 0-.532.675-.709 1.5-.393.868.334 1.5.018 1.5-.749 0-1.474 4.74-5.889 6.322-5.889.556 0 .727-.284.38-.631-.347-.348-.16-1.512.415-2.588.725-1.354 1.715-1.789 3.215-1.414 1.616.405 2.46-.077 3.314-1.892 1.049-2.226.985-2.348-.75-1.42-1.043.559-1.896.79-1.896.515 0-.75 3.833-2.653 6.302-3.128 1.194-.23 2.853-1.296 3.685-2.369.832-1.073 2.186-2.091 3.009-2.262.823-.171 1.948-.879 2.5-1.573s2.123-1.476 3.491-1.738c1.368-.262 3.173-1.387 4.013-2.5.84-1.113 2.64-2.238 4-2.5 1.36-.262 3.16-1.387 4-2.5.84-1.113 2.645-2.238 4.013-2.5 1.368-.262 2.981-1.15 3.586-1.973.604-.823 1.351-1.244 1.659-.936.307.308.877-.442 1.266-1.666.702-2.211.807-2.221 16.591-1.634 8.737.325 15.885.28 15.885-.1-.001-.38-2.753-.809-6.117-.954-7.23-.31-8.205-.77-7.662-3.613.369-1.932.037-2.106-3.4-1.778-2.096.2-3.583.73-3.306 1.178.277.448-.241 1.559-1.151 2.469-1.317 1.317-2.696 1.514-6.759.967-6.15-.83-6.605-1.065-6.605-3.414 0-1.393-.91-1.923-3.77-2.195-3.457-.33-3.769-.152-3.75 2.144.019 2.418-.205 2.505-6.48 2.505-6.272 0-6.499-.088-6.481-2.5.018-2.216-.408-2.508-3.75-2.566-3.284-.058-3.769.229-3.769 2.231 0 2.665-2.642 3.646-8.494 3.155-4.894-.412-6.942-3.214-4.006-5.482l2-1.545-2 .553c-1.1.305-8.075.184-15.5-.268-10.82-.658-5.957-.83 24.5-.864l38-.042v-16.097c0-13.624-.237-16.172-1.542-16.587-6.81-2.166-64.731-2.963-100.671-1.385M78 179.882c-2.627.464-3.5 1.117-3.5 2.618 0 1.794.667 2 6.486 2 5.554 0 6.539-.27 6.849-1.88.639-3.318-2.154-4.095-9.835-2.738m17.709-.258c-1.272 1.273-.746 4.148.873 4.769 2.326.892 9.707.71 11.266-.278.742-.47 1.187-1.701.99-2.735-.295-1.551-1.412-1.931-6.389-2.172-3.317-.161-6.35.026-6.74.416m20.648.889c-.998 2.599 1.604 4.487 6.184 4.487 5.833 0 7.459-.786 7.459-3.607 0-2.28-.309-2.393-6.531-2.393-4.908 0-6.676.376-7.112 1.513m-62.309.929c-2.404 2.897-.512 4.559 5.171 4.543 6.113-.018 8.122-.968 7.62-3.605-.291-1.528-1.405-1.935-5.939-2.175-4.069-.215-5.925.12-6.852 1.237M210 180.383c0 .211.901.619 2.001.907 1.101.288 1.75.115 1.441-.383-.538-.871-3.442-1.313-3.442-.524" fill="#1976D2" fill-rule="evenodd"/><path fill-opacity=".268" d="M48.495 25.941c-3.621 1.469-12.355 10.071-18.48 18.2-7.358 9.764-7.292 8.733-2.518 39.686 4.86 31.509 4.476 30.363 6.583 19.673 3.945-20.023 11.213-34.353 24.645-48.591l6.465-6.854-1.215-7.277c-1.55-9.291-3.274-12.587-7.509-14.357-3.798-1.587-5.059-1.663-7.971-.48m150.82.484c-4.032 1.802-5.765 5.21-7.286 14.325-.665 3.987-1.39 7.25-1.611 7.25-.22 0-2.476-1.584-5.011-3.519-8.192-6.253-8.413-6.056-3.742 3.323 2.382 4.783 5.534 13.196 7.003 18.696 2.591 9.698 2.685 11.016 3.092 43.648l.419 33.649 4.516 1.724c10.16 3.88 14.308 10.701 16.587 27.273 1.26 9.161 1.01 12.105-.782 9.206-.34-.55-3.081-1-6.09-1-4.096 0-5.627.403-6.087 1.601-.338.88.014 1.999.781 2.485 2.001 1.267 11.29 1.12 12.609-.199 2.061-2.061-.294 24.525-2.977 33.613-1.545 5.233-8.999 12.689-14.236 14.24-7.887 2.335-32.363 3.645-68 3.639-38.164-.006-64.436-1.491-70.396-3.978l-3.604-1.504 3.554 3.801c7.052 7.544 7.393 7.109-5.434 6.947-8.805-.112-11.22.132-10.454 1.055 3.388 4.082 18.234 7.704 44.834 10.941 17.737 2.158 60.673 2.424 78 .483 18.892-2.116 39.685-5.922 43.789-8.017 4.742-2.418 10.632-8.803 12.764-13.835.973-2.296 1.822-8.173 2.171-15.022l.573-11.25h3.77c6.285 0 6.933-.608 6.933-6.5 0-5.917-.635-6.5-7.082-6.5H224l.007-40.25c.005-35.619.235-41.573 1.993-51.75 1.093-6.325 2.24-13.75 2.548-16.5.309-2.75 1.21-9.05 2.002-14 2.769-17.289 2.309-18.891-9.242-32.194-10.109-11.642-15.734-14.68-21.993-11.881m6.508 4.284c-1.472.225-3.169 1.003-3.771 1.728-1.839 2.216 2.534 2.678 4.525.478.93-1.027 2.08-1.627 2.557-1.332.476.294.866.058.866-.524 0-.582-.338-.992-.75-.909-.412.082-1.955.334-3.427.559M38.134 45.222c-5.742 7.01-8.449 12.005-7.896 14.568.261 1.21.984.541 2.472-2.29 1.156-2.2 4.185-7.097 6.731-10.881 2.547-3.785 4.451-7.06 4.233-7.279-.219-.218-2.712 2.429-5.54 5.882m39.18 49.686c-.274 1.049-1.352 2.13-2.394 2.403-2.902.759-3.92 4.872-3.92 15.841v10.021l6.218 6.475 6.217 6.475 2.033-2.803c3.433-4.734 5.43-6.32 7.961-6.32 1.335 0 3.215-.787 4.177-1.75 1.593-1.593 5.163-1.78 39.822-2.082 37.013-.323 38.135-.39 40.322-2.424 3.224-2.998 2.977-5.489-.5-5.053-1.512.189-16.7 1.473-33.75 2.853-17.05 1.38-31.739 2.609-32.642 2.732-.949.13-7.779-5.792-16.177-14.026C86.687 99.412 79.621 93 78.979 93c-.641 0-1.391.858-1.665 1.908m-2.036 86.214c-2.292 2.292-.205 3.878 5.079 3.863 5.891-.018 8.202-1.086 7.32-3.384-.734-1.914-10.584-2.294-12.399-.479m20.196-.08c-1.298 2.1 1.202 3.068 7.13 2.762 4.439-.229 5.896-.675 5.896-1.804 0-1.884-11.912-2.76-13.026-.958m21 0c-1.298 2.1 1.202 3.068 7.13 2.762 4.439-.229 5.896-.675 5.896-1.804 0-1.884-11.912-2.76-13.026-.958m21 0c-1.298 2.1 1.202 3.068 7.13 2.762 4.439-.229 5.896-.675 5.896-1.804 0-1.884-11.912-2.76-13.026-.958m20.972.045c-1.08 1.747.708 2.748 6.054 3.391 5.485.66 8.128-.4 7.177-2.877-.468-1.221-2.033-1.601-6.587-1.601-3.284 0-6.274.489-6.644 1.087m21.468.516c-1.911 2.304.048 3.397 6.086 3.397 5.593 0 8.243-1.237 6.363-2.97-1.624-1.497-11.285-1.829-12.449-.427M41.75 185.055 38 188.911v10.968c0 10.215.17 11.17 2.479 13.914 2.269 2.697 2.829 2.882 6.608 2.191 7.349-1.344 8.413-3.363 8.413-15.964v-10.924l-3.953-4.048c-2.174-2.226-4.424-4.003-5-3.948-.576.055-2.734 1.835-4.797 3.955m11.934-2.673c-.975 2.539 1.535 3.495 7.323 2.788 3.918-.478 5.493-1.1 5.493-2.17 0-2.166-12-2.745-12.816-.618m-11.277 9.131c-.819 3.264 1.077 5.487 4.68 5.487 3.575 0 5.507-3.021 3.878-6.065-.899-1.68-1.378-1.837-2.577-.842-1.116.926-1.754.941-2.63.065-1.765-1.765-2.658-1.404-3.351 1.355m-20.157 2.149c-.783.316-1.25 2.52-1.25 5.902 0 4.839.244 5.459 2.362 5.991 2.994.751 9.219.188 8.888-.805-.138-.412-.25-3.225-.25-6.25V193l-4.25.079c-2.337.043-4.812.306-5.5.583" fill="#1976D2" fill-rule="evenodd"/></svg>