<svg xmlns="http://www.w3.org/2000/svg" width="256" height="256"><path fill-opacity=".016" d="M0 128.004v128.004l128.25-.254 128.25-.254.254-127.75L257.008 0H0v128.004m.485.496c0 70.4.119 99.053.265 63.672.146-35.38.146-92.98 0-128C.604 29.153.485 58.1.485 128.5" fill="#1976D2" fill-rule="evenodd"/><path fill-opacity=".211" d="M120.241 1.995c-8.908 5.431-9.682 19.183-1.67 29.686L121.102 35h-8.083c-9.368 0-13.514 1.422-17.316 5.941C93.149 43.976 93 44.72 93 54.441v10.287l-4.306 1.645c-7.772 2.968-20.915 11.817-28.945 19.489-13.294 12.701-22.764 28.94-27.969 47.963-1.692 6.18-2.115 10.694-2.173 23.175-.065 13.888.207 16.505 2.615 25.168C40.171 210.769 58.546 233.205 84.5 246c15.704 7.743 23.752 9.5 43.5 9.5 13.971 0 17.75-.342 24.656-2.233 45.328-12.407 76.374-54.453 74.043-100.279-1.853-36.428-23.777-69.703-55.883-84.812l-7.81-3.676-.007-9.5c-.005-7.648-.386-10.123-1.955-12.696-3.286-5.388-6.299-6.679-16.65-7.132l-9.316-.407 2.441-3.201c5.507-7.22 7.107-18.385 3.486-24.323-4.241-6.956-13.94-9.407-20.764-5.246m2.933 8.319c-2.647 2.818-2.749 6.825-.311 12.186 2.509 5.514 4.613 7.178 6.795 5.372 2.357-1.95 5.294-8.823 5.32-12.448.046-6.386-7.525-9.663-11.804-5.11M96.635 79.073c-3.541 2.784-3.541 7.07 0 9.854 3.252 2.559 5.47 2.619 8.421.229C109.559 85.51 106.736 77 101.024 77c-.965 0-2.94.933-4.389 2.073m53.438 1.562C148.933 82.084 148 84.048 148 85c0 .952.933 2.916 2.073 4.365C154.071 94.449 162 91.547 162 85c0-6.547-7.929-9.449-11.927-4.365m-24.684 2.795c-.996 2.595.399 4.739 2.857 4.39 1.652-.235 2.254-.987 2.254-2.82 0-1.833-.602-2.585-2.254-2.82-1.353-.192-2.496.308-2.857 1.25m-.181 45.362c-1.054 1.054-2.964 3.782-4.246 6.062l-2.33 4.146h-6.382c-10.875 0-12.506 2.615-7.631 12.236l2.62 5.169-3.12 5.674c-4.598 8.365-3.906 11.91 2.331 11.932 8.575.031 10.378.945 14.164 7.177 3.294 5.422 3.864 5.897 6.742 5.617 2.512-.244 3.815-1.31 6.479-5.305l3.335-5 6.93-.649c3.812-.357 7.599-.905 8.415-1.218 2.318-.89 1.77-6.122-1.199-11.439l-2.684-4.807 3.184-5.565c5.375-9.395 3.673-12.812-6.395-12.836l-5.921-.015-4-6.235c-4.379-6.826-7.102-8.134-10.292-4.944m-61.847 7.973c-2.058 1.329-12.361 18.583-12.349 20.682.006 1.129 2.693 6.215 5.97 11.303 5.243 8.14 6.303 9.25 8.833 9.25 1.581 0 3.581-.787 4.445-1.75C73.712 172.401 81 159.444 81 157.154c0-2.846-10.328-19.682-12.611-20.558-2.044-.785-3.632-.731-5.028.169m122.388.985C183.415 140.366 174 156.159 174 157.457c0 .62 2.7 5.444 6 10.719 6.334 10.123 8.72 11.893 12.604 9.348 2.894-1.896 12.396-17.442 12.396-20.281 0-2.773-10.369-19.787-12.574-20.633-2.763-1.06-5.065-.667-6.677 1.14m-60.728 10.375c-5.781 2.285-8.215 7.577-5.974 12.988C120.355 164.27 124.506 167 128 167c3.531 0 7.651-2.742 8.994-5.986 3.068-7.406-4.697-15.764-11.973-12.889m-28.962 76.816C91.865 229.135 94.612 236 100.485 236c5.944 0 9.098-5.394 5.772-9.87-2.564-3.449-7.377-4.01-10.198-1.189M150 226c-2.703 2.703-2.518 6.572.455 9.545 2.998 2.999 5.45 3.104 8.91.382 3.194-2.512 3.604-7.74.806-10.272-2.516-2.277-7.726-2.1-10.171.345m-23.837 1.878c-.736.467-1.186 1.922-1 3.235.253 1.789.963 2.387 2.837 2.387s2.584-.598 2.837-2.387c.289-2.041-1.13-4.082-2.837-4.082-.275 0-1.102.381-1.837.847" fill="#1976D2" fill-rule="evenodd"/><path fill-opacity=".348" d="M121.218 1.663c-9.708 4.785-10.684 18.492-2.155 30.265l2.95 4.072-9.757.004C96.388 36.01 93 39.521 93 55.958v9.022l-6.488 2.942c-14.33 6.497-30.974 20.543-39.57 33.391l-4.139 6.187 4.086.307c3.273.246 5.023-.339 8.801-2.938 6.45-4.437 10.678-5.777 18.31-5.803 6.891-.023 11.396 1.516 18.39 6.283 4.917 3.352 11.694 3.602 16.11.595 8.975-6.112 18.095-8.487 25.919-6.749 2.245.498 7.128 2.741 10.852 4.983 8.412 5.065 12.522 4.967 20.775-.497 9.847-6.519 20.942-6.959 30.454-1.208 8.484 5.129 9.721 5.632 13.128 5.334l3.507-.307-4.16-6c-9.278-13.38-22.626-24.842-37.725-32.395L163 64.978v-9.021c0-16.436-3.388-19.947-19.256-19.953L133.987 36l2.95-4.072c4.016-5.544 6.411-13.145 5.814-18.448-1.187-10.526-12.053-16.489-21.533-11.817m1.666 8.453c-1.742 1.742-2.034 2.975-1.649 6.975C121.694 21.875 125.952 30 128 30s6.306-8.125 6.765-12.909c.385-4 .093-5.233-1.649-6.975C131.902 8.902 129.722 8 128 8c-1.722 0-3.902.902-5.116 2.116M98.357 77.001C95.833 78.008 93 81.756 93 84.088c0 .903.933 2.828 2.073 4.277C99.188 93.596 108 90.696 108 84.111c0-5.196-5.071-8.935-9.643-7.11m54.108.951c-3.307 1.34-4.614 3.671-4.28 7.629.603 7.123 7.853 9.515 12.787 4.218 2.836-3.044 2.527-6.454-.895-9.876-3.046-3.045-4.215-3.348-7.612-1.971m-27.425 4.5c-2.657 3.201 1.245 8.118 4.71 5.936C133.212 86.207 131.979 81 128 81c-.965 0-2.297.653-2.96 1.452m-61.003 34.466c-8.189 5.111-15.333 6.828-22.376 5.377-6.114-1.259-5.834-1.548-8.656 8.912-5.288 19.597-4.48 41.955 2.132 58.959 1.021 2.628 1.142 2.659 8.329 2.115 8.447-.639 13.952.846 20.928 5.646 6.545 4.503 11.731 4.27 20.323-.912 7.646-4.612 11.21-5.481 19.42-4.736 4.562.413 7.536 1.487 12.826 4.63 8.489 5.043 13.584 5.443 19.36 1.517 6.745-4.583 11.853-6.381 18.177-6.398 7.939-.022 12.126 1.245 18.067 5.469 7.052 5.014 11.579 4.852 20.851-.747 7.005-4.23 7.084-4.25 16.813-4.25h9.775l1.502-4.521c6.113-18.411 6.054-41.953-.153-61.778-1.295-4.136-2.01-5.156-3.257-4.651-7.075 2.865-16.026 1.484-24.735-3.816-8.978-5.465-12.802-5.58-20.938-.628-7.26 4.419-11.479 5.896-16.824 5.888-6.053-.008-11.348-1.762-17.565-5.819-7.748-5.056-12.197-4.929-21.536.614-11.627 6.901-20.23 6.797-32.02-.385-8.799-5.361-12.492-5.449-20.443-.486m58.866 14.332c-1.711 2.338-3.321 4.77-3.578 5.406-.256.635-3.697 1.471-7.646 1.856-7.321.716-10.719 2.439-10.632 5.393.026.877 1.297 4.009 2.825 6.958l2.777 5.364-3.338 6.286c-2.693 5.07-3.157 6.762-2.401 8.75 1.17 3.078 2.863 3.737 9.598 3.737h5.344l4.352 6.25c6.097 8.756 8.273 8.884 13.756.809l4.115-6.059h6.807c5.326 0 7.168-.398 8.463-1.829 2.32-2.564 2.083-4.492-1.274-10.37l-2.928-5.128 3.564-6.804c3.438-6.563 3.506-6.895 1.906-9.337-1.3-1.984-2.493-2.532-5.511-2.532-8.108 0-9.721-.844-13.589-7.11-3.099-5.021-4.068-5.89-6.568-5.89-2.295 0-3.608.923-6.042 4.25m64.515 4.719c-2.386.965-13.418 18.619-13.418 21.471 0 2.005 7.927 15.516 11.331 19.31 3.01 3.356 7.046 2.952 9.981-1 3.691-4.971 10.688-17.202 10.688-18.685 0-2.115-10.115-18.01-12.81-20.13-2.727-2.145-2.819-2.16-5.772-.966M61.749 137.75C59.415 140.366 50 156.159 50 157.457c0 .62 2.733 5.496 6.073 10.835 6.318 10.099 8.736 11.951 12.776 9.789C71.294 176.772 82 159.78 82 157.208c0-1.933-10.445-19.206-12.361-20.443-2.058-1.327-6.3-.798-7.89.985m60.328 12.839c-2.456 2.066-3.077 3.367-3.077 6.444 0 5.726 3.53 9.422 9 9.422 5.47 0 9-3.696 9-9.422 0-3.077-.621-4.378-3.077-6.444-1.733-1.458-4.32-2.589-5.923-2.589-1.603 0-4.19 1.131-5.923 2.589M43 206.913c0 .503 2.631 4.44 5.847 8.75 14.037 18.812 32.054 30.94 55.142 37.118 8.119 2.173 11.633 2.546 24.011 2.546 12.385 0 15.89-.372 24.031-2.551 10.168-2.72 22.328-8.265 31.712-14.461 7.612-5.025 19.898-17.28 25.131-25.065l4.201-6.25h-4.093c-2.999 0-5.856 1.064-10.699 3.985-7.646 4.612-11.21 5.481-19.421 4.736-4.595-.416-7.473-1.465-12.711-4.63-8.381-5.063-13.651-5.474-19.474-1.517-12.45 8.46-24.411 8.563-36.298.313-7.011-4.865-11.711-4.676-20.742.836-12.371 7.55-21.169 7.009-36.137-2.223-3.907-2.41-10.5-3.406-10.5-1.587m54.229 15.756c-2.157.868-4.318 6.127-3.636 8.846 1.359 5.412 8.41 7.24 12.233 3.171 5.6-5.962-.937-15.099-8.597-12.017m53.032 2.581c-4.965 5.351-1.967 12.75 5.166 12.75 2.512 0 3.982-.704 5.5-2.635 2.75-3.495 2.618-6.911-.382-9.91-3.123-3.123-7.495-3.21-10.284-.205m-25.221 3.202c-2.383 2.871.904 7.274 4.422 5.924C133.1 232.98 131.915 227 128 227c-.965 0-2.297.653-2.96 1.452" fill="#1976D2" fill-rule="evenodd"/><path fill-opacity=".241" d="M122.45 1.354c-6.621 2.998-10.468 10.679-8.923 17.818.914 4.227 4.835 12.053 6.895 13.763 2.988 2.48 1.553 3.065-7.521 3.065-16.07 0-19.113 2.915-19.735 18.903-.382 9.833-.302 10.363 1.465 9.685 8.623-3.313 17.03-4.796 29.869-5.272 13.929-.516 17.227-.116 36.394 4.407l2.394.565-.503-9.604c-.555-10.621-1.769-13.484-7.089-16.728-2.558-1.56-5.042-1.949-12.446-1.952-9.218-.004-10.667-.583-7.672-3.069.868-.72 2.751-3.588 4.186-6.372 3.406-6.613 3.705-15.111.674-19.175-4.736-6.35-11.946-8.769-17.988-6.034m2.858 6.665c-3.526 1.405-5.595 5.388-4.774 9.19.899 4.166 3.846 10.031 5.893 11.73 2.007 1.666 3.945.213 6.563-4.919 3.25-6.372 3.503-10.355.843-13.287-2.759-3.04-5.509-3.916-8.525-2.714M65 117.007c-7.654 5.099-12.024 6.306-20.958 5.789l-7.992-.462-1.529 4.604c-6.046 18.203-6.002 41.295.116 60.834 1.243 3.969 2.047 5.154 3.257 4.797 9.337-2.757 15.72-1.729 25.535 4.112 9.198 5.474 12.317 5.475 20.661.007 2.975-1.95 7.435-4.076 9.91-4.724 5.611-1.469 13.878-.577 19.034 2.053 2.138 1.091 4.086 1.983 4.33 1.983.244 0-.362-2.137-1.346-4.75-.985-2.613-2.363-7.338-3.063-10.5l-1.273-5.75h-4.186c-4.478 0-7.496-2.195-7.496-5.452 0-.987 1.404-4.348 3.119-7.469l3.12-5.674-2.62-5.169c-1.44-2.843-2.619-6.284-2.619-7.646 0-3.178 3.428-5.586 7.973-5.603l3.527-.012 2.108-8.238c1.16-4.53 2.444-9.021 2.854-9.979.633-1.479-.113-1.349-4.923.853-4.876 2.232-6.746 2.546-13.38 2.242-6.999-.32-8.363-.746-14.746-4.603-8.788-5.31-12.912-5.574-19.413-1.243m-2.128 19.005C60.701 137.28 50 155.051 50 157.388c0 1.953 7.986 15.577 11.349 19.362 2.203 2.479 6.407 2.957 8.792 1C73.028 175.381 82 159.928 82 157.325c0-3.013-10.302-19.881-13.036-21.344-2.265-1.212-3.979-1.204-6.092.031" fill="#1976D2" fill-rule="evenodd"/></svg>